<?xml version="1.0" standalone="no"?><!DOCTYPE svg PUBLIC "-//W3C//DTD SVG 1.1//EN" "http://www.w3.org/Graphics/SVG/1.1/DTD/svg11.dtd"><svg t="1614147176236" class="icon" viewBox="0 0 1024 1024" version="1.1" xmlns="http://www.w3.org/2000/svg" p-id="18746" xmlns:xlink="http://www.w3.org/1999/xlink" width="20" height="20"><defs><style type="text/css"></style></defs><path d="M831.488 337.92c-6.144-4.096-14.336-2.048-20.48 4.096l-102.4 92.16L614.4 337.92l92.16-106.496c4.096-6.144 6.144-14.336 4.096-20.48s-10.24-12.288-18.432-12.288l-6.144 0c-57.344 0-155.648 4.096-198.656 49.152l-8.192 8.192c-47.104 47.104-55.296 126.976-30.72 186.368L212.992 684.032c-32.768 32.768-32.768 83.968 0 116.736l28.672 28.672c16.384 16.384 36.864 24.576 57.344 24.576s40.96-8.192 57.344-24.576l239.616-241.664c22.528 12.288 53.248 20.48 79.872 20.48 40.96 0 81.92-16.384 112.64-47.104l8.192-8.192c47.104-49.152 47.104-151.552 47.104-196.608C843.776 348.16 839.68 342.016 831.488 337.92zM768 526.336l-8.192 8.192c-22.528 22.528-53.248 34.816-83.968 34.816-16.384 0-36.864-2.048-51.2-8.192-12.288-6.144-24.576-12.288-34.816-22.528L327.68 802.816c-8.192 8.192-18.432 12.288-28.672 12.288s-20.48-4.096-28.672-12.288l-28.672-28.672c-16.384-16.384-16.384-43.008 0-59.392l256-262.144c-8.192-12.288-14.336-26.624-18.432-40.96l0 0c-10.24-38.912-4.096-94.208 26.624-126.976l8.192-8.192c26.624-26.624 96.256-34.816 133.12-36.864l-75.776 86.016c-6.144 8.192-6.144 20.48 0 26.624l118.784 120.832c8.192 8.192 18.432 8.192 26.624 0l83.968-75.776C800.768 442.368 792.576 499.712 768 526.336z" p-id="18747" fill="#9c9c9c"></path></svg>