<?xml version="1.0" standalone="no"?><!DOCTYPE svg PUBLIC "-//W3C//DTD SVG 1.1//EN" "http://www.w3.org/Graphics/SVG/1.1/DTD/svg11.dtd"><svg t="1614147147543" class="icon" viewBox="0 0 1024 1024" version="1.1" xmlns="http://www.w3.org/2000/svg" p-id="17867" xmlns:xlink="http://www.w3.org/1999/xlink" width="20" height="20"><defs><style type="text/css"></style></defs><path d="M811.41094971 741.22891235h0.15078735a323.33670044 323.33670044 0 0 0-144.16094971-270.39221191 220.8515625 220.8515625 0 0 0 43.1515503-131.68515015c0-120.89685059-96.03671265-218.89297485-214.5234375-218.89297485-118.42657471 0-214.49295044 97.99530029-214.49295044 218.89297485 0 49.41952515 16.06091308 95.04299927 43.15155029 131.68515015A323.33670044 323.33670044 0 0 0 180.52655029 741.22973633h0.12112427v102.45547485l-0.06097412 1.265625c0 15.36795044 12.17422485 27.75311279 27.2109375 27.7531128a27.48202515 27.48202515 0 0 0 27.18127441-27.72344971l-0.06015014-1.29528809V732.91171265a267.37811279 267.37811279 0 0 1 128.70153808-221.54452515 210.90701294 210.90701294 0 0 0 132.40859986 46.67816162 210.90701294 210.90701294 0 0 0 132.40859985-46.64767456 267.34844971 267.34844971 0 0 1 128.73202515 221.42340088v110.89297485c-0.02966309 0.39221191-0.09063721 0.81408692-0.09063721 1.23596192 0 15.36795044 12.17422485 27.75311279 27.2109375 27.75311279a27.48202515 27.48202515 0 0 0 27.18127441-27.72344971l-0.06015014-1.29528808V741.22891235zM496.02890015 498.2890625c-86.12265015 0-155.94296265-71.23672485-155.94296265-159.13751221s69.8203125-159.13668823 155.94296265-159.13668823 155.97344971 71.23590088 155.9734497 159.13668823-69.85079956 159.10702515-155.9734497 159.10702515z" fill="#ff6700" p-id="17868"></path></svg>