<?xml version="1.0" standalone="no"?><!DOCTYPE svg PUBLIC "-//W3C//DTD SVG 1.1//EN" "http://www.w3.org/Graphics/SVG/1.1/DTD/svg11.dtd"><svg t="1614147198705" class="icon" viewBox="0 0 1024 1024" version="1.1" xmlns="http://www.w3.org/2000/svg" p-id="19645" xmlns:xlink="http://www.w3.org/1999/xlink" width="20" height="20"><defs><style type="text/css"></style></defs><path d="M805.440892 335.981359a296.427831 296.427831 0 0 0-587.035955 0A134.715429 134.715429 0 0 1 296.378227 458.195196v53.886172a134.715429 134.715429 0 1 1-269.430859 0v-53.886172a134.715429 134.715429 0 0 1 111.328831-132.667755 377.257089 377.257089 0 0 1 747.293431 0A134.715429 134.715429 0 0 1 996.89846 458.195196v53.886172a134.715429 134.715429 0 0 1-111.32883 132.667755 377.472633 377.472633 0 0 1-317.389552 321.161584c-10.669462 18.15964-29.960712 29.852939-54.963895 31.038435-40.306856 1.83213-69.459275-29.42185-69.459276-68.004349 0-37.235345 30.984549-67.14217 68.166007-67.14217 20.207314 0 37.72032 9.160649 49.575278 23.332712a296.589489 296.589489 0 0 0 243.9427-250.840129A134.715429 134.715429 0 0 1 727.467602 512.081368v-53.886172a134.715429 134.715429 0 0 1 77.97329-122.213837zM161.662798 404.309025a53.886172 53.886172 0 0 0-53.886172 53.886171v53.886172a53.886172 53.886172 0 0 0 107.772344 0v-53.886172a53.886172 53.886172 0 0 0-53.886172-53.886171z m700.520233 0a53.886172 53.886172 0 0 0-53.886172 53.886171v53.886172a53.886172 53.886172 0 0 0 107.772344 0v-53.886172a53.886172 53.886172 0 0 0-53.886172-53.886171z" p-id="19646" fill="#9c9c9c"></path></svg>