<?xml version="1.0" standalone="no"?><!DOCTYPE svg PUBLIC "-//W3C//DTD SVG 1.1//EN" "http://www.w3.org/Graphics/SVG/1.1/DTD/svg11.dtd"><svg t="1613757313298" class="icon" viewBox="0 0 1024 1024" version="1.1" xmlns="http://www.w3.org/2000/svg" p-id="4936" xmlns:xlink="http://www.w3.org/1999/xlink" width="20" height="20"><defs><style type="text/css"></style></defs><path d="M470.183 91.997c-1.836 3.264-4.283 5.915-5.711 6.12-1.224 0-15.095 0-30.394-0.205-24.07-0.204-29.986 0.204-41.409 4.08-11.423 3.876-13.259 5.1-12.239 8.363 0.816 2.244 0.408 3.876-0.816 3.876s-2.243-1.836-2.243-4.08c0-3.06-1.428-4.08-5.916-4.08-8.363 0-18.563 8.976-18.563 16.115 0 8.16-6.323 12.851-18.766 13.871-17.135 1.224-19.379 2.244-22.03 8.568-3.468 8.363-10.812 12.85-19.99 12.035-5.916-0.408-7.344-1.428-6.936-4.284 0.408-1.836-0.408-3.468-1.632-3.468-3.672 0-14.279 10.608-14.279 14.28 0 5.303-7.14 13.462-14.279 16.318-5.304 2.244-6.731 2.04-8.771-0.612-3.06-3.876-11.627-1.224-11.627 3.468 0 2.04 1.224 2.652 3.06 2.04 2.04-0.816 3.06 0 3.06 2.243s-1.429 3.06-4.488 2.652c-3.672-0.408-4.488 0.204-4.08 3.264 0.408 2.04-1.632 6.323-4.488 9.18-48.956 49.567-51.2 51.607-55.687 50.791-2.652-0.408-3.672 0.612-3.672 4.284 0 2.652-1.224 5.304-2.448 5.711-1.632 0.612-2.652-0.815-2.652-3.467 0-5.712-4.895-4.284-5.711 1.836-0.408 2.447 0.408 5.711 1.632 7.343 4.283 5.1-9.384 23.458-17.543 23.458-3.06 0-12.851 9.18-13.667 12.851-0.204 1.224 1.428 2.244 3.672 2.448 9.383 0.204 4.895 18.563-6.12 25.498-7.955 4.896-11.015 12.035-10.811 24.274 0.204 7.548-0.816 9.995-5.304 13.871-3.06 2.652-7.547 4.692-10.199 4.692-7.14 0-14.279 8.975-14.075 17.746 0.204 4.08-1.224 11.015-2.855 15.707-2.652 7.14-3.264 24.07-3.672 110.355-0.204 94.853 0 102.808 3.468 114.843 2.243 7.14 3.467 14.28 2.855 16.115-1.835 4.692 4.284 16.727 9.384 18.767 2.651 1.02 7.14 2.448 10.199 3.06 7.14 1.631 9.791 6.731 10.607 21.01 0.612 10.811 1.224 12.035 9.995 19.786 9.587 8.568 13.055 15.911 10.811 23.255-1.02 2.855-2.651 3.671-5.711 2.855-4.896-1.224-4.284 0.204 3.876 9.588 3.06 3.467 7.139 6.323 8.975 6.323 3.264 0 18.154 14.687 18.154 17.95 0 0.817-1.02 2.652-2.243 3.876-2.652 2.652-1.632 11.22 1.427 12.24 1.224 0.407 2.856-1.225 3.468-3.876 1.428-5.304 4.488-3.264 4.488 3.06 0 3.06 1.224 4.487 4.08 4.487 4.487 0 9.79 4.488 32.229 26.926s26.926 27.742 26.926 32.23c0.204 3.06 1.428 3.875 4.692 3.671 2.447-0.408 4.487 0.408 4.487 1.428 0 1.224-1.836 2.04-4.08 2.04-5.711 0-5.1 5.1 1.224 9.995 6.732 5.304 8.364 5.304 9.996 0.204 0.612-2.244 2.855-4.08 4.895-4.08 4.284 0 16.523 12.24 16.523 16.727 0 1.836 3.468 6.324 7.547 9.995l7.548 6.528 1.224-4.896c0.816-3.671 2.651-5.1 7.751-5.507 5.304-0.612 7.955 0.612 13.259 6.12 3.672 3.67 7.547 8.566 8.567 10.606 1.836 3.06 4.896 4.08 15.095 4.488 14.28 0.612 22.642 5.916 22.642 14.279 0 8.16 8.16 15.503 17.34 15.503 4.487 0 13.258 1.632 19.378 3.671 10.199 3.264 20.398 3.672 114.23 3.264 88.122-0.408 104.236-1.02 111.376-3.672 4.692-1.835 11.627-3.263 15.707-3.06 8.363 0.205 17.746-6.73 17.746-13.258 0-6.732 4.08-12.035 11.627-15.095 3.876-1.632 8.772-2.448 11.016-1.836 7.547 2.448 15.094-0.816 19.174-8.363 4.488-8.364 13.259-13.667 21.01-12.647 3.876 0.408 5.508 1.836 5.508 4.691 0.204 2.448 1.428 3.876 3.06 3.468 4.487-1.02 14.279-10.811 14.279-14.279 0-4.488 7.751-14.279 12.647-15.91 3.06-0.817 5.303 0 7.751 3.263 3.264 4.488 3.672 4.488 8.771 1.02 5.916-3.876 7.548-11.22 2.448-11.22-1.632 0-3.06-0.815-3.06-2.039 0-1.02 2.04-1.836 4.488-1.428 3.264 0.204 4.488-0.612 4.692-3.672 0-2.243 2.04-6.323 4.691-9.179 4.284-4.691 32.434-33.25 45.489-46.1 2.856-2.856 7.14-4.896 9.179-4.488 3.06 0.408 3.672-0.408 3.264-4.488l-0.612-5.1 3.876 4.897 3.875 4.691 4.284-4.691c5.507-5.712 5.711-8.364 0.612-11.424-2.652-1.631-3.672-3.875-2.856-6.731 1.224-4.692 11.831-14.279 15.707-14.279 3.06 0 15.503-11.423 15.503-14.075 0-1.02-1.836-2.244-4.08-2.856-6.12-1.632-5.508-13.463 1.02-20.602 2.652-2.856 5.915-5.304 6.935-5.304 4.284 0 8.772-10.403 9.18-21.622 0.612-12.647 5.303-19.174 14.482-19.174 6.528 0 15.707-11.22 14.891-18.155-0.408-3.672-1.632-5.1-4.08-4.692-2.243 0.408-3.671-0.612-3.671-2.651 0-2.448 1.224-3.06 4.08-2.04 3.263 1.02 4.487-0.408 7.547-10.607 1.836-6.528 3.468-16.115 3.468-21.215 0-8.16 0.612-9.791 5.711-12.647l5.712-3.264v-28.353c0-25.702-0.408-28.966-4.284-33.862l-4.08-5.303 4.08-5.304c5.1-6.527 5.508-13.055 1.224-21.214-2.856-5.508-2.856-6.732 0-12.24 2.04-4.079 3.06-10.198 2.652-16.93-0.612-9.791-1.02-10.811-7.752-14.075-3.875-1.836-8.363-4.487-9.587-5.711-4.487-3.876-3.06-11.831 2.652-15.503 5.916-3.876 5.916-5.712 0-25.294-2.04-6.12-3.468-14.483-3.264-18.563 0.204-8.975-6.527-18.154-13.259-18.154-2.651 0-7.343-2.244-10.403-4.692-4.488-3.876-5.711-6.935-6.12-15.707-1.02-14.89-2.243-17.95-9.179-21.418-8.159-4.284-12.443-11.627-11.627-19.787 0.408-4.895 1.632-6.731 4.284-6.527 2.04 0.204 3.468-1.02 3.468-3.468 0-2.244-1.224-3.875-2.856-3.875s-3.264-1.428-3.876-3.06c-0.816-1.632-4.284-4.284-8.16-5.712-6.527-2.856-17.746-14.075-17.746-17.746 0-1.02 1.836-2.856 4.08-4.08 5.1-2.856 5.1-6.528 0-11.22-4.488-4.079-10.2-2.855-10.2 2.04 0 1.837-1.02 2.652-2.04 2.04-1.427-0.815-1.427-2.651 0-5.303 2.245-3.876 1.633-4.692-4.283-4.08-3.468 0.408-6.323-1.836-30.597-25.906-21.827-21.418-28.558-29.373-28.15-32.841 0.816-6.324-4.08-16.319-9.18-19.379-2.855-1.835-4.283-1.428-6.731 2.244-1.836 2.652-3.876 4.692-4.896 4.692-3.467 0-16.114-12.851-16.114-16.319 0-4.284-11.22-16.319-15.095-16.319-1.632 0-2.652 1.632-2.448 3.468 0.204 2.652-1.632 3.876-6.324 4.284-8.77 0.816-13.87-2.244-19.99-11.627-4.692-7.548-5.304-7.956-18.155-8.772-15.298-1.02-23.05-6.12-24.07-16.522-0.816-7.548-8.159-13.463-17.95-14.075-6.324-0.612-7.14 0-6.732 3.875 0.816 7.752-9.791 4.692-25.498-6.935-6.527-4.896-7.751-5.1-33.25-4.488l-26.313 0.816-4.08-6.731c-4.691-7.548-5.507-7.752-11.83-3.264-3.673 2.448-5.916 2.856-10.2 1.224-3.06-1.224-13.055-2.652-22.438-3.06l-16.727-1.02-3.06 5.916z m70.375 91.589c5.711 2.243 14.279 4.08 19.174 4.08 6.528 0 9.792 1.223 13.26 4.895 6.73 7.14 37.736 17.747 50.18 17.135 12.646-0.408 21.418 3.671 25.497 11.627 1.632 3.467 5.712 9.587 8.976 13.87 5.915 7.752 6.323 7.752 15.91 6.528 9.996-1.428 13.26 1.02 6.528 4.692-2.652 1.428-2.856 2.652-1.02 6.323 1.428 2.244 3.06 4.284 4.08 4.284 1.224 0 72.618 70.986 86.489 86.081 3.672 3.672 4.08 3.876 7.547 0.612 2.04-1.836 4.896-2.856 5.916-2.04 2.856 1.632 2.856 8.568 0.204 10.2-6.12 3.671 5.507 18.358 17.542 22.234 8.364 2.652 11.832 8.771 12.24 22.234 0.203 6.935 2.447 18.563 4.895 25.702 3.264 9.383 4.284 15.503 3.264 21.826-1.02 7.956-0.612 9.384 3.672 12.035 3.875 2.448 5.507 6.324 7.139 15.911 2.856 17.339 3.264 98.932 0.612 105.868-1.224 2.856-2.04 10.607-1.836 16.93 0.408 10.608 0 11.832-5.915 16.931-4.896 4.284-7.14 8.772-9.588 18.97-1.836 7.344-2.855 16.523-2.244 20.4 1.428 8.362-4.283 16.726-14.074 21.01-8.976 3.671-17.747 12.443-17.747 17.542 0 2.244 1.02 4.08 2.04 4.08 2.856 0 2.652 9.587-0.408 11.423-1.224 0.816-3.264 0-4.692-1.836-1.428-2.04-3.06-3.468-3.875-3.468-0.816 0-23.255 21.623-49.773 48.14-42.836 42.837-47.732 48.549-44.672 50.793 5.915 4.283 3.876 5.711-5.916 4.283-8.771-1.02-9.587-0.816-16.318 6.528-3.672 4.08-6.936 8.975-6.936 10.81 0 1.633-2.652 5.712-5.915 8.772-6.936 6.732-19.787 7.14-19.379 0.612 0.204-1.836-1.02-3.468-2.652-3.468s-2.651 1.224-2.04 2.448c1.632 5.304-14.89 9.588-37.533 9.588-21.214 0.204-21.622 0.204-27.333 6.323l-5.916 6.12H432.038l-5.915-4.896c-3.06-2.652-9.792-5.508-14.483-6.324-23.05-3.467-30.19-5.711-30.19-9.587 0-2.04-1.428-3.672-3.06-3.672-2.04 0-3.06 1.428-2.651 3.468 0.408 2.856-1.02 3.876-5.916 4.284-8.363 0.816-18.154-4.284-21.826-11.423-1.632-3.264-4.488-6.936-6.12-8.364-1.836-1.427-2.855-3.467-2.244-4.283 0.612-1.02-0.408-3.264-2.243-5.1-3.06-2.856-3.672-2.856-8.16 0-5.711 3.672-11.423 3.876-14.687 0.612-3.671-3.672-2.855-7.14 1.836-8.363l4.284-1.224-4.08-5.304c-2.448-2.856-6.731-7.343-9.995-9.791-3.06-2.448-6.731-5.712-7.955-7.547-4.488-5.916-33.658-34.678-35.086-34.678-1.02 0-4.691-4.08-8.363-8.975-3.672-4.896-8.975-9.995-11.627-11.627-4.284-2.244-5.304-2.04-7.751 1.224-1.428 2.04-3.672 3.06-4.896 2.244-3.468-2.04-3.06-5.508 0.816-8.16 1.836-1.428 2.448-3.671 1.632-5.915-1.632-4.284-4.692-4.488-7.956-0.204-1.835 2.652-3.263 2.856-6.731 1.02-6.12-3.264-14.687-16.319-14.687-22.439 0-3.263-3.876-8.975-11.22-16.726-10.402-11.015-11.218-12.443-11.218-21.827 0-5.507-1.428-13.666-3.264-17.746-2.244-5.712-2.856-11.423-2.04-22.234 0.612-7.956 1.836-41.613 2.448-74.659 0.816-47.324 0.408-65.07-2.04-83.43-2.856-21.825-2.856-23.661 0.816-35.696 2.244-6.732 4.08-15.707 4.08-19.787 0-7.14 10.199-24.274 14.483-24.274 1.836 0 3.06-2.448 11.219-22.03 5.711-14.075 43.856-47.732 41.205-36.513-0.408 1.428 0.408 2.856 1.427 3.06 2.04 0.407 2.244-1.02 2.856-11.832 0.204-4.487 0.612-4.691 2.448-1.631 2.856 5.1 6.12 4.487 13.055-2.652 3.468-3.264 8.16-8.364 10.811-10.811 2.448-2.652 4.488-5.916 4.488-7.14 0-1.224 2.244-3.264 5.1-4.284 5.507-2.04 6.935-6.119 2.04-6.119-1.633 0-3.06-1.428-3.06-3.06 0-4.487 28.761-33.657 33.045-33.657 7.547 0 19.174-6.528 27.334-15.503 7.751-8.363 8.975-8.975 18.562-8.975 11.22 0 37.125-8.364 46.1-15.095 3.265-2.448 10.608-4.692 17.34-5.508 6.323-0.816 15.298-2.855 19.786-4.487 6.323-2.652 16.523-3.264 44.264-3.468 31.414 0 37.533 0.612 46.509 4.08z m226.422 4.895c0 0.612-0.816 1.632-2.04 2.244-1.02 0.612-2.04 0.204-2.04-0.816 0-1.224 1.02-2.244 2.04-2.244 1.224 0 2.04 0.408 2.04 0.816z m146.053 212.756c-2.04 2.04-3.876-1.02-2.04-3.672 1.224-2.244 1.632-2.244 2.448 0 0.408 1.428 0.204 3.06-0.408 3.672z m-821.24-0.204c0 1.632-0.816 2.447-2.04 1.836-1.02-0.612-2.04-2.04-2.04-3.264 0-1.02 1.02-1.836 2.04-1.836 1.224 0 2.04 1.428 2.04 3.264z m-0.816 247.024c-2.04 2.04-3.876-1.02-2.04-3.671 1.224-2.244 1.632-2.244 2.448 0 0.408 1.428 0.204 3.06-0.408 3.671zM381.45 933.023c0 0.612-0.816 1.632-2.04 2.244-1.02 0.612-2.04 0.204-2.04-0.816 0-1.224 1.02-2.244 2.04-2.244 1.224 0 2.04 0.408 2.04 0.816z m244.781 0c0 2.244-3.876 3.06-5.1 1.224-0.611-1.02 0.204-2.04 1.836-2.04 1.836 0 3.264 0.408 3.264 0.816z" fill="#c9c6c4" p-id="4937"></path><path d="M384.102 357.38c-2.448 1.224-4.896 4.08-5.508 6.528-0.612 2.243-1.223 84.245-1.223 181.953 0 135.242 0.611 178.078 2.447 179.914 1.632 1.632 11.831 2.448 32.23 2.448 27.13 0 30.393-0.408 33.657-4.08 3.264-3.671 3.468-8.567 3.264-54.871-0.408-43.449 0-52.22 2.856-58.136 1.836-3.875 5.303-7.547 7.751-8.16 2.448-0.611 37.533-1.223 78.126-1.223 70.782 0 73.842-0.204 77.31-4.08 3.264-3.467 3.468-7.751 3.264-34.881-0.204-17.135-1.224-32.841-2.448-34.881-1.836-3.468-6.324-3.672-75.474-3.672-83.838 0-85.674-0.204-89.55-13.667-1.631-5.1-2.243-18.97-1.631-37.94 0.612-27.947 1.02-30.19 5.303-34.474l4.692-4.692 97.3-0.612c96.077-0.408 97.3-0.408 100.973-4.691 2.855-3.672 3.467-8.772 3.467-34.882 0-17.134-1.02-32.23-2.04-34.473-2.04-3.672-5.711-3.876-136.26-3.672-88.938 0-135.446 0.816-138.506 2.244z m421.635 43.653c0 1.632 1.02 2.447 2.04 1.836 1.224-0.816 1.632-2.244 1.02-3.264-1.836-2.856-3.06-2.244-3.06 1.428z m0.204 242.74c0 2.245 0.612 2.856 1.224 1.225 0.612-1.428 0.408-3.264-0.204-3.876-0.612-0.816-1.224 0.408-1.02 2.652z m-699.87-297c0 1.02 1.02 2.04 2.04 2.04 1.224 0 2.04-1.02 2.04-2.04 0-1.224-0.816-2.04-2.04-2.04-1.02 0-2.04 0.816-2.04 2.04z m787.38 0.204c0 1.02 1.02 1.428 2.039 0.816 1.224-0.612 2.04-1.632 2.04-2.244 0-0.408-0.816-0.816-2.04-0.816-1.02 0-2.04 1.02-2.04 2.244zM106.07 697.625c0 1.02 1.02 2.04 2.245 2.04 1.02 0 1.427-1.02 0.815-2.04-0.611-1.223-1.631-2.04-2.243-2.04-0.408 0-0.816 0.817-0.816 2.04z m569.116 218.263c0 1.02 1.02 2.04 2.244 2.04 1.02 0 1.428-1.02 0.816-2.04-0.612-1.223-1.632-2.04-2.244-2.04-0.408 0-0.816 0.817-0.816 2.04z m-351.26 1.428c1.428 0.612 3.263 0.408 3.875-0.204 0.816-0.612-0.408-1.224-2.651-1.02-2.244 0-2.856 0.612-1.224 1.224z" fill="#c9c6c4" p-id="4938"></path></svg>