<?xml version="1.0" standalone="no"?><!DOCTYPE svg PUBLIC "-//W3C//DTD SVG 1.1//EN" "http://www.w3.org/Graphics/SVG/1.1/DTD/svg11.dtd"><svg t="1613757424504" class="icon" viewBox="0 0 1024 1024" version="1.1" xmlns="http://www.w3.org/2000/svg" p-id="7700" xmlns:xlink="http://www.w3.org/1999/xlink" width="20" height="20"><defs><style type="text/css"></style></defs><path d="M943.213-26.921c0-54.603-54.563-123.829-125.604-123.829h-609.29c-84.044 0-128.105 77.795-128.105 124.35v1079.501c0 60.439 64.214 121.703 123.505 121.703h615.421c116.415 0 124.114-125.594 124.114-125.594s1.302-835.415-0.041-1076.131v0 0zM512.002 1125.701c-29.803 0-53.987-24.714-53.987-55.251 0-30.478 24.182-55.23 53.987-55.23 29.813 0 53.997 24.753 53.997 55.23 0 30.54-24.182 55.251-53.997 55.251v0 0zM851.971 986.533h-679.949v-996.006h679.957l-0.007 996.006zM851.971 986.533z" p-id="7701" fill="#ffffff"></path><path d="M744.471 252.11l-46.474-45.925-181.582 192.564-190.407-201.909-46.483 45.915 157.467 166.978h-133.41v48.249h172v93.693l-172 0.207v46.739h172v182.276h72.844v-182.276l171.99 0.029-0.059-46.766h-171.93v-93.89h171.93v-48.258h-124.496l148.611-157.622zM744.471 252.11z" p-id="7702" fill="#ffffff"></path></svg>