<?xml version="1.0" standalone="no"?><!DOCTYPE svg PUBLIC "-//W3C//DTD SVG 1.1//EN" "http://www.w3.org/Graphics/SVG/1.1/DTD/svg11.dtd"><svg t="1614067535044" class="icon" viewBox="0 0 1024 1024" version="1.1" xmlns="http://www.w3.org/2000/svg" p-id="14329" xmlns:xlink="http://www.w3.org/1999/xlink" width="20" height="20"><defs><style type="text/css"></style></defs><path d="M512 0a512 512 0 1 1 0 1024A512 512 0 0 1 512 0z m0 68.288A444.224 444.224 0 0 0 68.288 512 444.224 444.224 0 0 0 512 955.712 444.224 444.224 0 0 0 955.712 512 444.224 444.224 0 0 0 512 68.288zM445.312 273.472c8.704 0 17.472 3.328 24.128 9.984l204.352 204.352 0.256 0.32h-0.128l-0.256 0.128a32 32 0 0 1 8.64 17.984l0.384 4.928v0.064l0.768 0.064h-0.64l-0.128 0.128c0.512 0 0.768 0 0.768 0.128h0.192v0.256h-1.024V512h0.256l0.512 0.064-0.384 0.064h-0.384v0.064a32.96 32.96 0 0 1-5.76 18.88l-3.264 4.096h0.256v0.192h-0.064l-0.128 0.192-205.632 205.696a34.176 34.176 0 0 1-48.256-48.256l181.568-180.992-180.16-180.224a34.176 34.176 0 0 1 24.128-58.24z" fill="#ff6700" p-id="14330"></path></svg>