<?xml version="1.0" standalone="no"?><!DOCTYPE svg PUBLIC "-//W3C//DTD SVG 1.1//EN" "http://www.w3.org/Graphics/SVG/1.1/DTD/svg11.dtd"><svg t="1613757235312" class="icon" viewBox="0 0 1024 1024" version="1.1" xmlns="http://www.w3.org/2000/svg" p-id="4223" xmlns:xlink="http://www.w3.org/1999/xlink" width="20" height="20"><defs><style type="text/css"></style></defs><path d="M865.61 436.66l-317.7-57.88 0.09-155.63a115 115 0 0 0-145.66-110.89l-0.63 0.18-256.41 76A115 115 0 0 0 63 298.72v511.63c0 64.18 55 116.4 122.55 116.4h323.33a35.27 35.27 0 0 0 4.12 0.25h326.92C906.13 927 960 875.41 960 812V549.8a115 115 0 0 0-94.39-113.14zM477.76 856.75H185.55c-29 0-52.55-20.81-52.55-46.4V298.72a45.27 45.27 0 0 1 32.21-43.14l256.05-75.92A45 45 0 0 1 478 223.12zM890 812c0 24.81-22.47 45-50.08 45H548V450l305.06 55.58A45 45 0 0 1 890 549.8z" fill="#c9c6c4" p-id="4224"></path><path d="M365 373.25H240.24a35 35 0 0 0 0 70H365a35 35 0 0 0 0-70zM365 597.25H240.24a35 35 0 0 0 0 70H365a35 35 0 0 0 0-70zM786 597.25H652a35 35 0 0 0 0 70h134a35 35 0 0 0 0-70z" fill="#c9c6c4" p-id="4225"></path></svg>