<?xml version="1.0" standalone="no"?><!DOCTYPE svg PUBLIC "-//W3C//DTD SVG 1.1//EN" "http://www.w3.org/Graphics/SVG/1.1/DTD/svg11.dtd"><svg t="1613757365748" class="icon" viewBox="0 0 1024 1024" version="1.1" xmlns="http://www.w3.org/2000/svg" p-id="5971" xmlns:xlink="http://www.w3.org/1999/xlink" width="20" height="20"><defs><style type="text/css"></style></defs><path d="M798.435467 0H351.523163C274.949403 0 128.06701 410.7138 128.06701 417.675051v510.259687a96.065262 96.065262 0 0 0 96.065262 96.065262h574.303195A96.065262 96.065262 0 0 0 893.804604 925.150238V96.065262A96.065262 96.065262 0 0 0 798.435467 0z m31.325629 925.150238a32.021754 32.021754 0 0 1-31.325629 32.021754H224.132272a32.021754 32.021754 0 0 1-32.021754-32.021754V417.675051A1697.152957 1697.152957 0 0 1 359.876664 64.043508h87.015635v95.369136a32.021754 32.021754 0 0 0 64.043508 0V64.043508h64.043508v95.369136a32.021754 32.021754 0 1 0 63.347383 0V64.043508h64.043507v95.369136a32.021754 32.021754 0 1 0 64.043508 0V64.043508h32.021754a31.325629 31.325629 0 0 1 31.325629 32.021754z" fill="#ffffff" p-id="5972"></path><path d="M670.348451 510.259687H351.523163a96.065262 96.065262 0 0 0-96.065262 96.065262v127.390891a96.065262 96.065262 0 0 0 96.065262 96.065261h318.825288a96.065262 96.065262 0 0 0 96.065262-96.065261V606.324949a96.065262 96.065262 0 0 0-96.065262-96.065262z m32.021754 223.456153a32.717879 32.717879 0 0 1-32.021754 32.021753H351.523163a32.717879 32.717879 0 0 1-32.021754-32.021753V606.324949a32.717879 32.717879 0 0 1 32.021754-32.021754h318.825288a32.717879 32.717879 0 0 1 32.021754 32.021754z" fill="#ffffff" p-id="5973"></path></svg>