<?xml version="1.0" standalone="no"?><!DOCTYPE svg PUBLIC "-//W3C//DTD SVG 1.1//EN" "http://www.w3.org/Graphics/SVG/1.1/DTD/svg11.dtd"><svg t="1613757400905" class="icon" viewBox="0 0 1024 1024" version="1.1" xmlns="http://www.w3.org/2000/svg" p-id="6834" xmlns:xlink="http://www.w3.org/1999/xlink" width="20" height="20"><defs><style type="text/css"></style></defs><path d="M275.46624 379.54048l-25.23136-56.76544-107.22304 50.4576C199.77728 221.85472 344.84736 120.9344 508.84608 120.9344c182.92224 0 340.61312 126.15168 384.76288 302.76096l63.06816-12.61568C906.21952 202.9312 723.3024 57.856 515.1488 57.856c-182.91712 0-340.60288 107.22816-416.29696 271.22688l-31.5392-81.9968L4.24448 259.70176l75.68896 208.14848 195.5328-88.30976zM1019.76064 776.91904l-75.68896-208.14848-195.53792 88.29952 25.23136 56.77056 94.6176-44.14976c-63.0784 138.76224-201.85088 233.37984-359.53152 233.37984-182.92224 0-340.608-126.15168-384.76288-302.76096l-63.0784 12.61056c50.46272 208.14848 233.37984 353.21856 441.52832 353.21856 182.92224 0 340.61312-107.21792 416.30208-271.22176l31.52896 100.92032 69.39136-18.9184z" p-id="6835" fill="#c9c6c4"></path></svg>